<svg xmlns="http://www.w3.org/2000/svg" width="124.897" height="112.881" viewBox="0 0 124.897 112.881">
  <g id="Layer_1-2" transform="translate(0)">
    <g id="Group_12777" data-name="Group 12777" transform="translate(0 0)">
      <path id="Path_17951" data-name="Path 17951" d="M59.143,42.66C42.078,70.158,12.414,58.953,1.453,90.567c-6.4,18.46,9.5,36.41,24.986,43.955,25.759,12.552,51.775,2.132,73.032-14.193,16.466-12.645,28.464-27.112,24.745-49.508-5.862-35.293-48.828-54.339-65.073-28.161Z" transform="translate(0 -27.2)" fill="#adadad" opacity="0.21"/>
      <g id="Group_12776" data-name="Group 12776" transform="translate(41.317 0)">
        <g id="Group_12773" data-name="Group 12773" transform="translate(0 11.261)">
          <path id="Path_17952" data-name="Path 17952" d="M394.917,140.758h-.056l.121,0C394.961,140.759,394.939,140.759,394.917,140.758Zm2,.315-.066-.018q.077.021.155.045Zm21.063,3.712a1.094,1.094,0,0,0-.085-.118A1.438,1.438,0,0,1,417.978,144.784Zm-.085-.118a1.314,1.314,0,0,0-.1-.116C417.827,144.589,417.861,144.628,417.894,144.666Zm-6.633,7.029c.041,0,.079-.005.118-.011l.026,0-.163.015Zm-1.106.023c.126.006.252.009.38.008h.21c.056,0,.112,0,.166-.005-.125.005-.249.008-.376.006S410.281,151.722,410.155,151.717Zm-.337-.021c-.112-.01-.222-.02-.333-.034C409.6,151.677,409.707,151.688,409.818,151.7Zm-.656-.082c.047.009.094.016.142.021-.1-.015-.2-.032-.3-.05l.156.029Zm-3.939-2.68a.766.766,0,0,1,.015-.152c.012-.059.025-.118.039-.176-.015.058-.028.117-.04.176A.768.768,0,0,0,405.223,148.934Zm-2.9,8.331v.861c0,.614,0,1.508,0,2.591v8.1a2.391,2.391,0,0,1,2.846.04c0-.2,0-.687,0-1.314,0-.258,0-.539,0-.834,0-.74,0-1.562,0-2.306,0-1.067,0-1.971,0-2.236,0-.283,0-.559,0-.825,0-.216,0-.425,0-.629,0-1.069.008-1.961.01-2.591,0-.522,0-.863,0-.974l-2.872.113ZM419.8,142.653a10.284,10.284,0,0,0-9.312-2.46,10.919,10.919,0,0,0-5.366,2.993c0-1.617-.033-3.044.023-4.469a1.773,1.773,0,0,1,.47-1.085c4.492-4.529,9.015-9.025,13.515-13.547A11.139,11.139,0,0,0,410,105.016a11.9,11.9,0,0,0-6.249,2.917c-.218-.173-.409-.32-.6-.472A11.126,11.126,0,0,0,387.9,123.595c1.115,1.222,2.317,2.365,3.489,3.535.824.822,1.622.923,2.245.307.643-.635.555-1.392-.274-2.237-1.2-1.224-2.469-2.394-3.608-3.675a8.274,8.274,0,0,1-.631-10.141,8.394,8.394,0,0,1,9.734-3.216,9.6,9.6,0,0,1,3.687,2.506,1.448,1.448,0,0,0,2.381.021c.29-.273.559-.568.859-.83a8.106,8.106,0,0,1,7.786-1.876,8.321,8.321,0,0,1,3.852,13.859c-2.52,2.68-5.186,5.222-7.784,7.827-1.946,1.952-3.889,3.907-6.044,6.073a6.025,6.025,0,0,0-.615-.921q-2.325-2.36-4.683-4.683a1.372,1.372,0,0,0-2.273.076,1.409,1.409,0,0,0,.35,1.895q2.771,2.76,5.53,5.53c.167.167.42.364.428.556.045.954.018,1.912.018,3.016-.385-.341-.612-.547-.847-.744a10.533,10.533,0,0,0-13.745.135,3.4,3.4,0,0,0-1.165,3.382,10.5,10.5,0,0,0,14.831,7.528c.285-.136.579-.252.9-.391v6.138l2.872-.113v-4.089c.249.116.414.189.575.268a10.479,10.479,0,0,0,15.1-7.359A3.24,3.24,0,0,0,419.8,142.653ZM401.927,147.9c-.013.013-.027.025-.04.035-.093.077-.188.152-.282.224s-.19.143-.286.21c-.192.136-.385.263-.582.38-.1.059-.2.115-.294.169-.149.081-.3.156-.45.225-.1.047-.2.091-.3.133h0c-.151.063-.3.12-.459.172a6.982,6.982,0,0,1-3.186.3c-.2-.028-.4-.062-.608-.105-.069-.014-.136-.03-.2-.046h0c-.108-.027-.218-.056-.328-.086h0c-.164-.047-.331-.1-.5-.157-.255-.088-.5-.186-.74-.291,0,0,0,0,0,0-.237-.107-.465-.221-.684-.345h0c-.073-.042-.145-.084-.215-.127h0c-.071-.044-.141-.087-.209-.132-.137-.09-.272-.185-.4-.281s-.254-.2-.376-.3-.239-.214-.352-.326a7.825,7.825,0,0,1-2.064-3.9,1.019,1.019,0,0,1,.058-.526c.015-.044.032-.088.052-.131a1.366,1.366,0,0,1,.1-.185l.027-.042h0c.019-.028.038-.055.057-.078h0c.01-.013.02-.025.03-.036a.4.4,0,0,1,.041-.044l.02-.02.021-.019.116-.1c.039-.033.078-.065.117-.1.076-.061.155-.121.233-.179l.005,0,.055-.04.067-.048.06-.042c.021-.014.041-.029.061-.042l.061-.043.062-.04.076-.05.077-.048.033-.02.1-.058c.07-.042.141-.083.211-.12l.1-.053.1-.053.1-.052c.059-.029.118-.056.178-.084q.121-.055.242-.1l.121-.048c.041-.015.08-.031.121-.045l.122-.044c.083-.028.164-.055.248-.079l.126-.036c.065-.019.132-.038.2-.054l.153-.036.061-.014.165-.034.159-.03c.054-.009.108-.018.163-.026.08-.013.162-.024.244-.032l.088-.011.13-.013.082-.005.082-.006c.044,0,.088-.006.132-.008.064,0,.13-.006.2-.008h.026l.21,0h.079l.134,0,.121,0c.19.005.378.019.563.039.111.012.22.026.329.043l.156.025a7.952,7.952,0,0,1,.819.187q.077.021.155.045l.006,0c.093.029.187.059.279.091.114.04.225.082.336.127.05.02.1.041.15.062l.147.064.044.02c.035.016.071.032.105.049l.146.072c.048.024.1.048.144.074a7.589,7.589,0,0,1,1.475,1.021l.1.09c.079.072.157.147.233.223.029.028.057.057.084.086l.028.029.019.019c.069.071.135.143.2.217.035.041.071.081.105.122.115.134.223.274.328.416l.113.16c.031.045.062.09.091.136a6.784,6.784,0,0,1,.392.667c.029.055.057.109.084.165s.056.116.084.175a.015.015,0,0,0,0,.006c.027.059.053.118.078.178s.052.122.076.185.048.125.071.188c.017.048.033.1.05.145.024.071.047.142.069.214l.008.024c.015.049.029.1.044.147s.029.105.042.159.023.089.033.133.021.088.03.133c.006.024.012.048.016.073s.011.048.016.073a1.362,1.362,0,0,1-.306,1.052Zm16.214-2.409a2.3,2.3,0,0,1-.071.39c-.006.026-.014.053-.022.078-.014.05-.028.1-.043.149l-.029.1c-.016.054-.032.106-.049.159-.029.087-.059.174-.091.26s-.056.151-.086.225c-.009.024-.019.048-.029.072-.023.055-.045.108-.069.161s-.048.11-.074.164l-.045.094c0,.009-.008.016-.011.025l-.006.013c-.017.034-.033.069-.05.1-.024.048-.048.1-.075.144-.046.087-.092.172-.142.257-.038.065-.076.131-.116.2l-.032.052c-.035.057-.073.115-.111.171-.016.025-.032.049-.049.073-.041.061-.083.121-.127.181s-.1.138-.155.206c-.018.025-.038.048-.056.072s-.044.056-.066.083-.06.074-.091.109-.044.054-.069.079l-.077.088c-.041.045-.082.09-.123.134s-.1.108-.156.161c-.023.023-.044.045-.068.068s-.071.069-.107.1-.09.084-.136.125c-.064.059-.13.116-.2.171s-.127.105-.192.157l-.03.023c-.062.049-.126.1-.19.143l-.085.06c-.044.032-.09.063-.135.094l-.024.015-.044.029-.047.031c-.015.011-.031.02-.047.03l-.1.059-.154.092-.157.089-.069.038c-.023.014-.046.026-.07.038-.081.043-.161.084-.244.122a7.421,7.421,0,0,1-1,.4l-.15.046c-.049.015-.1.029-.149.042s-.107.029-.162.042c-.075.019-.151.038-.229.054l-.1.02c-.137.029-.277.053-.418.073l-.174.024-.149.017-.163.015c-.108.01-.219.016-.33.021s-.249.008-.376.006-.255,0-.381-.006c-.057,0-.114-.005-.17-.01l-.167-.012c-.112-.01-.222-.02-.333-.034l-.152-.021-.029,0c-.1-.015-.2-.032-.3-.05l-.025-.005-.192-.041-.132-.031c-.076-.018-.151-.039-.226-.059l-.177-.053c-.063-.019-.127-.04-.189-.061l-.076-.027c-.052-.017-.1-.035-.152-.056s-.092-.035-.138-.055c-.083-.032-.165-.068-.247-.1l-.049-.024c-.052-.024-.1-.047-.156-.073l-.014-.006-.117-.059q-.113-.056-.222-.119l-.076-.044-.071-.041c-.076-.045-.151-.091-.226-.141l-.039-.026-.062-.04q-.1-.063-.187-.129c-.039-.027-.076-.055-.115-.084-.079-.058-.159-.119-.236-.182s-.157-.127-.233-.193a1.027,1.027,0,0,1-.2-.253c-.024-.04-.046-.083-.068-.127a1.516,1.516,0,0,1-.154-.619.766.766,0,0,1,.015-.152c.012-.059.025-.118.039-.176.009-.039.018-.077.028-.116s.017-.073.028-.108c.015-.06.031-.119.048-.178.01-.034.02-.069.03-.1.035-.115.073-.23.113-.341.025-.071.05-.141.078-.209.011-.03.023-.059.035-.088a.557.557,0,0,1,.027-.065q.052-.129.109-.254c0-.01.009-.019.014-.029.02-.046.042-.091.064-.136.05-.1.1-.207.159-.308.027-.049.055-.1.083-.147s.056-.1.085-.144.047-.077.072-.116l.032-.049c.023-.035.046-.071.07-.106s.048-.072.073-.108.049-.071.075-.105a7.366,7.366,0,0,1,.6-.734c.037-.04.074-.079.112-.118.064-.065.13-.131.2-.194.044-.042.088-.083.133-.123s.1-.092.156-.137.105-.09.159-.133.107-.087.162-.129l.133-.1.059-.043c.045-.032.09-.064.136-.1a.026.026,0,0,1,.01-.006q.084-.058.167-.113c.116-.075.233-.147.352-.216q.253-.145.515-.273l.05-.024q.084-.04.167-.077l.186-.08h0l.181-.073.01,0c.128-.049.257-.094.388-.137.2-.063.394-.12.595-.169a7.883,7.883,0,0,1,1.428-.209,7.678,7.678,0,0,1,1.812.117c.155.029.309.062.463.1s.307.083.458.131.3.1.454.161c.1.039.2.08.3.125a7.7,7.7,0,0,1,1.709,1.042l.07.057c.044.038.085.076.122.115s.072.077.1.116a1.4,1.4,0,0,1,.085.118,1.028,1.028,0,0,1,.067.121.656.656,0,0,1,.027.062.462.462,0,0,1,.019.054.564.564,0,0,1,.025.092.248.248,0,0,1,.011.047.694.694,0,0,1,.013.1c0,.014,0,.028,0,.043a1.039,1.039,0,0,1,0,.13l0,.06Z" transform="translate(-384.922 -104.908)"/>
          <path id="Path_17953" data-name="Path 17953" d="M623.919,209.561a1.436,1.436,0,0,1-1.373,1.624,1.632,1.632,0,1,1,1.374-1.624Z" transform="translate(-595.802 -196.898)" fill="#77bcb7"/>
          <path id="Path_17954" data-name="Path 17954" d="M623.994,161.141c-.014.974-.567,1.576-1.421,1.549-.835-.026-1.354-.662-1.336-1.642a1.388,1.388,0,0,1,1.432-1.545c.846.025,1.342.637,1.327,1.637Z" transform="translate(-595.87 -153.642)" fill="#77bcb7"/>
          <path id="Path_17955" data-name="Path 17955" d="M644.964,188.532a1.387,1.387,0,0,1-1.546-1.428,1.436,1.436,0,0,1,1.659-1.33,1.412,1.412,0,0,1,1.542,1.448C646.587,188.063,645.971,188.549,644.964,188.532Z" transform="translate(-615.671 -177.093)" fill="#77bcb7"/>
          <path id="Path_17956" data-name="Path 17956" d="M596.455,188.456c-.971-.012-1.58-.561-1.56-1.412s.652-1.361,1.628-1.347a1.4,1.4,0,0,1,1.564,1.418c-.019.835-.648,1.352-1.633,1.341Z" transform="translate(-572.357 -177.026)" fill="#77bcb7"/>
          <path id="Path_17957" data-name="Path 17957" d="M428.2,456.647a1.019,1.019,0,0,1,.114-.157A1.161,1.161,0,0,0,428.2,456.647Z" transform="translate(-423.555 -418.751)" fill="#77bcb7"/>
          <path id="Path_17958" data-name="Path 17958" d="M429.682,454.888c.039-.033.077-.067.116-.1l-.116.1c-.014.012-.028.026-.042.04A.381.381,0,0,1,429.682,454.888Z" transform="translate(-424.84 -417.234)" fill="#77bcb7"/>
          <path id="Path_17959" data-name="Path 17959" d="M432.2,452.4c.077-.061.155-.121.233-.179C432.355,452.278,432.276,452.338,432.2,452.4Z" transform="translate(-427.125 -414.94)" fill="#77bcb7"/>
          <path id="Path_17960" data-name="Path 17960" d="M434.375,451.458c.04-.03.079-.058.121-.088l-.127.091Z" transform="translate(-429.062 -414.181)" fill="#77bcb7"/>
          <path id="Path_17961" data-name="Path 17961" d="M435.55,450.317c.06-.044.121-.086.182-.127l-.061.043Z" transform="translate(-430.116 -413.128)" fill="#77bcb7"/>
          <path id="Path_17962" data-name="Path 17962" d="M437.25,449.038q.106-.072.216-.138c-.052.032-.1.064-.153.1Z" transform="translate(-431.633 -411.976)" fill="#77bcb7"/>
          <path id="Path_17963" data-name="Path 17963" d="M440.582,447.106l.1-.056c-.071.038-.142.078-.211.12Z" transform="translate(-434.508 -410.325)" fill="#77bcb7"/>
          <path id="Path_17964" data-name="Path 17964" d="M442.44,445.747c.1-.056.2-.107.3-.157-.069.034-.136.068-.2.1Z" transform="translate(-436.266 -409.021)" fill="#77bcb7"/>
          <path id="Path_17965" data-name="Path 17965" d="M448.79,505.21a7.176,7.176,0,0,0,.777.586A7.041,7.041,0,0,1,448.79,505.21Z" transform="translate(-441.935 -462.242)" fill="#77bcb7"/>
          <path id="Path_17966" data-name="Path 17966" d="M460.234,439.92c-.109.019-.218.041-.324.064l.172-.035c.05-.011.1-.02.152-.029Z" transform="translate(-451.861 -403.96)" fill="#77bcb7"/>
          <path id="Path_17967" data-name="Path 17967" d="M464.694,439.38c-.082.009-.163.019-.244.032l.165-.023Z" transform="translate(-455.914 -403.478)" fill="#77bcb7"/>
          <path id="Path_17968" data-name="Path 17968" d="M468.832,439.056l-.082.005.163-.012Z" transform="translate(-459.752 -403.183)" fill="#77bcb7"/>
          <path id="Path_17969" data-name="Path 17969" d="M457.881,511.564c.166.058.333.109.5.157-.165-.046-.332-.1-.5-.156a8.3,8.3,0,0,1-1.849-.9A8.354,8.354,0,0,0,457.881,511.564Z" transform="translate(-448.397 -467.116)" fill="#77bcb7"/>
          <path id="Path_17970" data-name="Path 17970" d="M473.77,438.871c-.071,0-.141,0-.21,0,.07,0,.141,0,.21,0h0Z" transform="translate(-464.046 -403.023)" fill="#77bcb7"/>
          <path id="Path_17971" data-name="Path 17971" d="M480.98,521.26q.411.1.813.151A7.972,7.972,0,0,1,480.98,521.26Z" transform="translate(-470.669 -476.569)" fill="#77bcb7"/>
          <path id="Path_17972" data-name="Path 17972" d="M527.75,460.55c.017.016.032.032.047.048l-.019-.019Z" transform="translate(-512.419 -422.376)" fill="#77bcb7"/>
          <path id="Path_17973" data-name="Path 17973" d="M538.248,505.455c.013-.011.027-.023.04-.035-.013.013-.026.025-.04.037-.187.154-.377.3-.568.434C537.871,505.755,538.061,505.61,538.248,505.455Z" transform="translate(-521.283 -462.429)" fill="#77bcb7"/>
          <path id="Path_17974" data-name="Path 17974" d="M544.482,488.881c-.016-.057-.034-.114-.052-.171l.008.024C544.453,488.783,544.466,488.832,544.482,488.881Z" transform="translate(-527.309 -447.513)" fill="#77bcb7"/>
          <path id="Path_17975" data-name="Path 17975" d="M543.79,486.72c.024.071.047.142.07.214-.012-.039-.024-.077-.036-.116l-.032-.1Z" transform="translate(-526.737 -445.737)" fill="#77bcb7"/>
          <path id="Path_17976" data-name="Path 17976" d="M543.356,485.475c0,.013.009.027.014.04-.016-.048-.032-.1-.05-.145C543.332,485.4,543.345,485.44,543.356,485.475Z" transform="translate(-526.318 -444.531)" fill="#77bcb7"/>
          <path id="Path_17977" data-name="Path 17977" d="M545.672,493.3c-.019-.093-.04-.187-.062-.279.011.045.02.089.03.133S545.662,493.25,545.672,493.3Z" transform="translate(-528.362 -451.36)" fill="#77bcb7"/>
          <path id="Path_17978" data-name="Path 17978" d="M585.252,529.9l.039.026c-.033-.02-.068-.043-.1-.065Z" transform="translate(-563.694 -484.246)" fill="#77bcb7"/>
          <path id="Path_17979" data-name="Path 17979" d="M588.311,531.821l.076.044c-.049-.027-.1-.056-.147-.085Z" transform="translate(-566.416 -485.96)" fill="#77bcb7"/>
          <path id="Path_17980" data-name="Path 17980" d="M593.056,534.363l.049.024c-.069-.031-.137-.062-.205-.1C592.952,534.316,593,534.339,593.056,534.363Z" transform="translate(-570.576 -488.2)" fill="#77bcb7"/>
          <path id="Path_17981" data-name="Path 17981" d="M608.11,464.493q.253-.146.515-.273Q608.363,464.347,608.11,464.493Z" transform="translate(-584.153 -425.652)" fill="#77bcb7"/>
          <path id="Path_17982" data-name="Path 17982" d="M618.49,460.667c.128-.051.258-.1.388-.137C618.747,460.573,618.618,460.618,618.49,460.667Z" transform="translate(-593.419 -422.358)" fill="#77bcb7"/>
          <path id="Path_17983" data-name="Path 17983" d="M622.1,459.129c.2-.064.394-.121.595-.169C622.494,459.008,622.3,459.065,622.1,459.129Z" transform="translate(-596.642 -420.956)" fill="#77bcb7"/>
          <path id="Path_17984" data-name="Path 17984" d="M627.64,457.219a7.706,7.706,0,0,1,1.428-.209A7.89,7.89,0,0,0,627.64,457.219Z" transform="translate(-601.587 -419.216)" fill="#77bcb7"/>
          <path id="Path_17985" data-name="Path 17985" d="M655.16,533c.083-.039.163-.079.244-.122-.046.025-.093.048-.141.072Z" transform="translate(-626.153 -486.942)" fill="#77bcb7"/>
          <path id="Path_17986" data-name="Path 17986" d="M658.283,458.2c-.154-.039-.308-.072-.463-.1C657.975,458.128,658.129,458.162,658.283,458.2Z" transform="translate(-628.527 -420.189)" fill="#77bcb7"/>
          <path id="Path_17987" data-name="Path 17987" d="M662.588,459.171c-.151-.048-.3-.092-.458-.131C662.284,459.079,662.437,459.122,662.588,459.171Z" transform="translate(-632.375 -421.028)" fill="#77bcb7"/>
          <path id="Path_17988" data-name="Path 17988" d="M662.987,529.129l.044-.029c-.03.02-.06.041-.091.06Z" transform="translate(-633.098 -483.568)" fill="#77bcb7"/>
          <path id="Path_17989" data-name="Path 17989" d="M669.9,523.1c.068-.055.133-.112.2-.171-.029.026-.057.05-.087.075S669.938,523.07,669.9,523.1Z" transform="translate(-639.311 -478.06)" fill="#77bcb7"/>
          <path id="Path_17990" data-name="Path 17990" d="M688.641,499.415l.045-.095c-.018.04-.037.079-.056.119,0-.009.008-.016.011-.025Z" transform="translate(-656.03 -456.984)" fill="#77bcb7"/>
          <path id="Path_17991" data-name="Path 17991" d="M690.75,493.745c.03-.074.059-.149.086-.225-.022.057-.043.117-.067.175Z" transform="translate(-657.923 -451.807)" fill="#77bcb7"/>
          <path id="Path_17992" data-name="Path 17992" d="M693.173,487.34c-.014.05-.028.1-.043.149C693.145,487.44,693.159,487.389,693.173,487.34Z" transform="translate(-660.047 -446.29)" fill="#77bcb7"/>
          <path id="Path_17993" data-name="Path 17993" d="M692.478,488.73c-.025.085-.05.17-.078.254.017-.053.033-.105.049-.159C692.46,488.793,692.47,488.762,692.478,488.73Z" transform="translate(-659.396 -447.531)" fill="#77bcb7"/>
        </g>
        <rect id="Rectangle_1570" data-name="Rectangle 1570" width="31.614" height="6.83" transform="translate(3.382 67.07)" fill="#77bcb7"/>
        <rect id="Rectangle_1571" data-name="Rectangle 1571" width="26.637" height="22.052" transform="translate(6.016 75.657)" fill="#77bcb7"/>
        <g id="Group_12774" data-name="Group 12774" transform="translate(1.194 64.479)">
          <path id="Path_17994" data-name="Path 17994" d="M420.217,609.287l.834.834h1.764l.835-.834Zm-10.341,0-.834.834h9.223l-.834-.834Zm-9.168,0,.834.834h4.715l.833-.834Zm23.168,2.591H407.285l-.63.63h16.782l-.094-.1Zm7.443-10.251a1.6,1.6,0,0,0-1.458-.927h-32.2a1.61,1.61,0,0,0-1.61,1.61V610.9a1.611,1.611,0,0,0,1.61,1.61h.537v22a1.611,1.611,0,0,0,1.61,1.61h27.908a1.611,1.611,0,0,0,1.61-1.61v-22h.537a1.611,1.611,0,0,0,1.61-1.61V602.31A1.6,1.6,0,0,0,431.32,601.627ZM426.105,632.9H401.417V612.508h24.688Zm2.147-23.615H399.27V603.92h28.982Zm-4.375,2.591H407.285l-.63.63h16.782l-.094-.1Zm-23.168-2.591.834.834h4.715l.833-.834Zm19.509,0,.834.834h1.764l.835-.834h-3.433Z" transform="translate(-396.05 -600.7)"/>
          <path id="Path_17995" data-name="Path 17995" d="M507.66,743.93h8.587a1.61,1.61,0,0,0,0-3.22H507.66a1.61,1.61,0,1,0,0,3.22Z" transform="translate(-494.243 -725.682)"/>
        </g>
        <g id="Group_12775" data-name="Group 12775" transform="translate(32.13)">
          <path id="Path_17996" data-name="Path 17996" d="M743.355,6.3a8.229,8.229,0,0,1-.662,1.112c-1.647,1.95-3.276,3.917-5.005,5.791-.34.368-1.094.354-1.657.516.061-.584-.09-1.336.218-1.725,1.613-2.041,3.316-4.012,5.055-5.949a2.362,2.362,0,0,1,1.41-.528c.17-.02.4.474.641.783Z" transform="translate(-730.472 -4.922)"/>
          <path id="Path_17997" data-name="Path 17997" d="M772.288,94.83c-.213-.2-.784-.489-.828-.846a1.331,1.331,0,0,1,.778-1.047,41.01,41.01,0,0,1,4.792-.878c.348-.042.762.46,1.145.712-.274.38-.486,1.012-.833,1.1-1.578.389-3.193.624-5.054.961Z" transform="translate(-762.097 -82.176)"/>
          <path id="Path_17998" data-name="Path 17998" d="M686.943,1.1c-.323,1.76-.508,3.179-.884,4.546-.1.377-.78.6-1.194.889-.217-.4-.649-.83-.613-1.209a26.779,26.779,0,0,1,.71-4.2c.118-.449.767-.757,1.174-1.13l.807,1.1Z" transform="translate(-684.25 0)"/>
        </g>
      </g>
    </g>
  </g>
</svg>
