<svg xmlns="http://www.w3.org/2000/svg" width="186.17" height="173.746" viewBox="0 0 186.17 173.746">
  <g id="Messages" transform="translate(-0.005 -0.002)">
    <g id="Layer_2-2" transform="translate(0.005 0.002)">
      <path id="Path_17914" data-name="Path 17914" d="M78.445,23.429C58.218,68.636,10.931,57.741.809,107.935-5.1,137.245,22.7,161.2,47.734,169.456c41.642,13.74,78.953-7.41,107.834-36.535,22.37-22.559,37.592-46.966,27.348-80.162C166.771.442,97.7-19.609,78.445,23.429Z" transform="translate(-0.005 -0.002)" fill="#adadad" opacity="0.21"/>
    </g>
    <g id="Layer_1-2" transform="translate(45.149 0.996)">
      <g id="Group_12745" data-name="Group 12745">
        <path id="Path_17915" data-name="Path 17915" d="M348.4,117.893c-14.705-.187-29.416-.164-44.123-.006-7.577.081-15.608,5.462-15.258,15.246.241,6.706.123,13.429,0,20.141-.041,2.24.651,2.99,2.93,2.949,7.017-.127,14.037-.017,21.053-.066a2.354,2.354,0,0,1,2.674,1.951c.475,1.473,1.631,2.72,2.44,4.093a5.68,5.68,0,0,1,1.153,2.382q.1,27.641.011,55.284a3.957,3.957,0,0,1-.914,2.356c-2.832,3.305-4.513,7.2-3.441,11.353,1.257,4.874.426,8.488-3.251,11.993-2.288,2.182-2.235,5.387-.883,8.368a6.821,6.821,0,0,0,6.42,4.1c.448.017.9.031,1.345.045,3.505.1,7.018.092,10.52-.042a7.04,7.04,0,0,0,5.5-2.654l.019-.025a7.124,7.124,0,0,0,1.075-2.037,9.025,9.025,0,0,0,.461-2.47,7.718,7.718,0,0,0-2.595-6.631c-2.893-2.434-3.451-5.272-2.47-8.794,1.312-4.708.111-8.935-2.849-12.8a6.05,6.05,0,0,1-1.143-3.4c-.092-8.952-.052-17.906-.052-26.858s.02-18.056-.02-27.083a3.684,3.684,0,0,1,1.489-3.427,5.789,5.789,0,0,0,2.128-3.26c.4-2.306,1.709-2.474,3.6-2.459,8.51.072,17.022.058,25.533.037,4.608-.011,4.005.212,4.019-3.936.022-6.267-.241-12.546.064-18.8.45-9.18-6.793-15.447-15.442-15.556Z" transform="translate(-289.009 -100.361)" fill="#77bcb7"/>
        <path id="Path_17916" data-name="Path 17916" d="M599.108,371.364c-.083,5.811-.027,11.623-.028,17.434,0,6.376-2.893,10.867-8.462,13.071a18.561,18.561,0,0,1-1.946.648c-4.435,1.22-8.872,1.778-13.19-.547-4.855-2.615-7.66-6.428-7.582-12.154.086-6.331.127-12.668-.036-19-.059-2.335.79-3.083,2.941-2.9.884.077,1.779.012,2.67.012l-.07-.7c.72-.5,1.429-1.389,2.16-1.407,1.2-.03,2.944-.943,3.477,1.287.087.369.989.759,1.524.773,2.906.075,5.816.066,8.722.008.509-.011,1.414-.322,1.457-.6.383-2.47,2.285-1.5,3.538-1.465.725.02,1.425.948,1.91,1.72C599.18,367.293,599.141,369.2,599.108,371.364Z" transform="translate(-524.304 -309.504)" fill="#77bcb7"/>
        <path id="Path_17917" data-name="Path 17917" d="M594.472,156.4v19.407a1.8,1.8,0,0,1-1.8,1.8H569.656a1.8,1.8,0,0,1-1.537-.872,1.8,1.8,0,0,1-.259-.926V156.4c0-.145,0-.286.009-.431a10.129,10.129,0,0,1,10.081-9.66h6.426A10.124,10.124,0,0,1,594.472,156.4Z" transform="translate(-524.302 -124.451)"/>
        <path id="Path_17918" data-name="Path 17918" d="M786.269,13.024a11.965,11.965,0,0,1-.964,1.618c-2.4,2.838-4.767,5.7-7.284,8.427-.5.536-1.592.515-2.412.751.089-.85-.131-1.945.317-2.51,2.348-2.969,4.825-5.839,7.356-8.657a3.437,3.437,0,0,1,2.052-.769c.247-.03.583.69.933,1.139Z" transform="translate(-699.601 -11.023)"/>
        <path id="Path_17919" data-name="Path 17919" d="M812.246,102.462c-.309-.289-1.14-.712-1.2-1.231a1.937,1.937,0,0,1,1.133-1.523,59.668,59.668,0,0,1,6.973-1.278c.506-.061,1.109.67,1.667,1.036-.4.553-.708,1.473-1.212,1.6-2.3.565-4.647.908-7.354,1.4Z" transform="translate(-729.495 -84.047)"/>
        <path id="Path_17920" data-name="Path 17920" d="M727.749,7.977c-.47,2.562-.739,4.627-1.287,6.615-.152.548-1.136.868-1.737,1.293-.316-.589-.945-1.207-.892-1.759a38.971,38.971,0,0,1,1.033-6.112c.172-.653,1.117-1.1,1.709-1.645l1.175,1.607Z" transform="translate(-655.909 -6.37)"/>
        <path id="Path_17921" data-name="Path 17921" d="M593.734,164.955c-4.3,1.342-5.141,1.342-7.746-2.346-2.3-3.251-4.053-6.879-6.073-10.328a2.93,2.93,0,0,1,.534-4,9.752,9.752,0,0,0,1.364-1.97h-2.057c-1.848,3.046-4.811,3.088-7.885,2.955-.328-.014-.659-.031-.989-.044a10.186,10.186,0,0,0-1.567,1.981c1.96.1,3.955.023,6.3.023-1.714,2.677-3.208,5.109-4.833,7.451-.292.422-1.123.473-1.7.7l-1.214.469V161.3l.617.708q-.307.958-.617,1.92V167.8l2.746-4.574,5.659,7.993c-1.821.667-3.63,1.357-5.458,1.992a21.38,21.38,0,0,0-2.948,1.14v1.454a1.746,1.746,0,0,0,.045.4l10.008-3.326c-.375,1.8-.684,3.287-.986,4.727H578.5c.212-.35.417-.7.6-1.068.853-1.671,1.237-3.974,2.584-4.91,2.062-1.431,4.774-1.924,7.788-3.027-.252,3.133-.5,5.714-.63,8.3a1.418,1.418,0,0,0,.206.7h1.287a1.278,1.278,0,0,0,.337-.617,52.933,52.933,0,0,0,.655-6.392c.069-2.159.94-3.418,3.094-3.935.016,0,.033-.008.048-.014v-1.754a1.928,1.928,0,0,0-.739.061Zm-13.423,4.819a2.88,2.88,0,0,1-2.526-.558c-1.956-2.562-3.7-5.288-5.452-8a1.493,1.493,0,0,1,.144-1.275c1.55-2.509,3.158-4.981,4.727-7.431,3.377,5.2,6.489,9.992,9.672,14.893C585.006,168.1,582.7,169.078,580.311,169.773Z" transform="translate(-524.302 -124.451)" fill="#fff"/>
      </g>
    </g>
  </g>
</svg>
