<svg xmlns="http://www.w3.org/2000/svg" width="216.282" height="197.232" viewBox="0 0 216.282 197.232">
  <g id="Layer_1-2" transform="translate(0)">
    <g id="Group_12784" data-name="Group 12784" transform="translate(0)">
      <g id="Group_12778" data-name="Group 12778" transform="translate(0 7.422)" opacity="0.21">
        <path id="Path_17999" data-name="Path 17999" d="M102.416,61.039C72.865,108.655,21.5,89.253,2.517,144c-11.084,31.967,16.456,63.051,43.268,76.117,44.607,21.736,89.658,3.692,126.469-24.578,28.513-21.9,49.291-46.949,42.85-85.732-10.151-61.116-84.553-94.1-112.686-48.767Z" transform="translate(0 -39.931)" fill="#adadad"/>
      </g>
      <g id="Group_12783" data-name="Group 12783" transform="translate(54.737)">
        <g id="Group_12779" data-name="Group 12779" transform="translate(79.905)">
          <path id="Path_18000" data-name="Path 18000" d="M724.635,4.448V0h19.136V3.931L730.635,20h12.9v4.413H724.36V20.446l13.138-16H724.637Z" transform="translate(-724.36)"/>
          <path id="Path_18001" data-name="Path 18001" d="M795.456,170.714V167.74h12.8v2.628l-8.785,10.744h8.623v2.952H795.27v-2.651l8.784-10.7h-8.6Z" transform="translate(-782.09 -136.561)"/>
          <path id="Path_18002" data-name="Path 18002" d="M736.263,274.631v-1.8h7.749v1.591l-5.32,6.506h5.221v1.788H736.15v-1.606l5.32-6.48h-5.208Z" transform="translate(-733.959 -222.117)"/>
        </g>
        <g id="Group_12782" data-name="Group 12782" transform="translate(0 44.947)">
          <g id="Group_12780" data-name="Group 12780">
            <path id="Path_18003" data-name="Path 18003" d="M346.433,241.81c4.452.768,7.561,3.586,10.608,6.666q16.118,16.3,32.408,32.43a15.206,15.206,0,0,1,4.708,11.346q-.05,40.955-.019,81.91c0,2.4-.55,2.944-2.955,2.944H297.5c-2.481,0-3-.519-3-3.032q0-29.791,0-59.583c0-.309-.009-.617.011-.924.093-1.312.784-2.06,1.916-2.089,1.184-.03,1.937.747,2.026,2.113.028.439.013.881.013,1.322v58.161h91.626c.028-.459.078-.883.078-1.307q.006-39.9,0-79.8c0-5.541-3.223-9.493-8.4-10.387a13.186,13.186,0,0,0-2.236-.13q-11.1-.014-22.2-.006c-2.234,0-2.833-.582-2.835-2.8-.007-7.487.02-14.972-.013-22.459-.024-5.489-3.325-9.457-8.5-10.3a11.5,11.5,0,0,0-1.842-.106q-22.132-.008-44.267,0h-1.409v1.842q0,28.272,0,56.544a8.4,8.4,0,0,1-.117,1.838,1.933,1.933,0,0,1-3.74-.026,6.676,6.676,0,0,1-.1-1.444q-.006-29.858-.02-59.715a3.351,3.351,0,0,1,1.206-3h50.746ZM358.567,255.9v21.484h21.487C372.9,270.231,365.781,263.113,358.567,255.9Z" transform="translate(-294.48 -241.81)"/>
            <path id="Path_18004" data-name="Path 18004" d="M639.26,317.61c7.214,7.212,14.333,14.329,21.487,21.484H639.26Z" transform="translate(-575.173 -303.521)" fill="#77bcb7"/>
          </g>
          <g id="Group_12781" data-name="Group 12781" transform="translate(17.958 55.434)">
            <path id="Path_18005" data-name="Path 18005" d="M401.12,551.836a10.042,10.042,0,0,1-10.03-10.03,1.766,1.766,0,0,1,3.532,0,6.5,6.5,0,0,0,13,0,1.766,1.766,0,0,1,3.532,0A10.042,10.042,0,0,1,401.12,551.836Z" transform="translate(-391.09 -540.04)" fill="#231f20"/>
            <path id="Path_18006" data-name="Path 18006" d="M594.15,551.836a10.042,10.042,0,0,1-10.03-10.03,1.766,1.766,0,0,1,3.532,0,6.5,6.5,0,0,0,13,0,1.766,1.766,0,0,1,3.532,0A10.042,10.042,0,0,1,594.15,551.836Z" transform="translate(-548.24 -540.04)" fill="#231f20"/>
          </g>
          <path id="Path_18007" data-name="Path 18007" d="M515.738,720.979c-3.307,0-5.9-3.779-5.9-8.6s2.591-8.6,5.9-8.6,5.9,3.779,5.9,8.6S519.045,720.979,515.738,720.979Zm0-13.677c-.965,0-2.366,1.976-2.366,5.073s1.4,5.073,2.366,5.073,2.366-1.976,2.366-5.073S516.7,707.3,515.738,707.3Z" transform="translate(-469.81 -617.903)" fill="#231f20"/>
        </g>
      </g>
    </g>
  </g>
</svg>
