<svg xmlns="http://www.w3.org/2000/svg" width="18" height="19.95" viewBox="0 0 18 19.95">
  <path id="receipt_FILL0_wght400_GRAD0_opsz48" d="M6,24V4.05l1.5,1.5L9,4.05l1.5,1.5L12,4.05l1.5,1.5L15,4.05l1.5,1.5L18,4.05l1.5,1.5L21,4.05l1.5,1.5L24,4.05V24l-1.5-1.5L21,24l-1.5-1.5L18,24l-1.5-1.5L15,24l-1.5-1.5L12,24l-1.5-1.5L9,24,7.5,22.5Zm2.925-5.375h12.25v-1.5H8.925Zm0-3.85h12.25v-1.5H8.925Zm0-3.875h12.25V9.4H8.925ZM7.5,21.475h15V6.575H7.5Zm0-14.9v0Z" transform="translate(-6 -4.05)" fill="#fff"/>
</svg>
